<?xml version="1.0" encoding="utf-8"?>
<!-- Generator: Adobe Illustrator 21.0.0, SVG Export Plug-In . SVG Version: 6.00 Build 0)  -->
<svg version="1.1" id="Layer_1" xmlns="http://www.w3.org/2000/svg" xmlns:xlink="http://www.w3.org/1999/xlink" x="0px" y="0px"
	 viewBox="0 0 200 200" style="enable-background:new 0 0 200 200;" xml:space="preserve">
<style type="text/css">
	.st0{fill:#1c2841;}
</style>
<path class="st0" d="M132,100l61.3-61.3c8.8-8.8,8.9-23.2,0.1-32.1c-8.8-8.9-23.1-8.9-32-0.1L100,68L38.6,6.6
	c-8.8-8.8-23.2-8.8-32,0.1c-8.8,8.9-8.8,23.2,0.1,32.1L68,100L6.7,161.3c-8.8,8.8-8.9,23.2-0.1,32.1c4.4,4.4,10.2,6.7,16,6.7
	c5.8,0,11.5-2.2,16-6.6L100,132l61.4,61.4c4.4,4.4,10.2,6.6,16,6.6c5.8,0,11.6-2.2,16-6.7c8.8-8.9,8.8-23.2-0.1-32.1L132,100z"/>
</svg>
